:SAMPLES-PER-SECOND 30
:FULLY-SPECIFIED
:DEGREES
53
root  22.8983 39.9955 20.7792 -133.317 -88.7153 130.691
RightUpLeg  4.45147 -8.53489 -5.82682
RightLeg  1.89669 4.12043 -0.546733
RightFoot  -3.31616 -0.252867 3.28192
RightToes  2.32829e-010 0 -3.6325e-017
Spine  -2.99408 0.28969 1.96949
Spine1  10.2001 1.04206 -2.95141
HEad  -2.53907 -16.8556 -6.32548
LeftShoulder1  -0.26309 4.25042 -29.1602
LeftArm  0.491304 7.83358 -42.5774
LeftForeArm  22.6096 -27.9018 -4.79306
LeftHand  -0.0623377 2.27934 1.90445
RightShoulder  -0.69962 -5.53283 27.7801
RightArm  16.0982 0.182518 47.2716
RightForeArm  11.2774 15.3726 5.49947
RightHand  -0.0812447 1.06123 -1.59326
LeftUpLeg  4.82534 6.69809 2.04962
LeftLeg  2.10881 1.31636 0.230067
LeftFoot  -3.49946 -0.015032 0.497815
LeftToes  -3.54706e-010 1.16038e-010 5.28031e-012
54
root  22.8917 39.9892 20.8592 -132.057 -88.6309 129.25
RightUpLeg  4.49106 -8.66446 -6.12467
RightLeg  2.26332 4.40147 -0.458932
RightFoot  -3.59121 -0.245544 3.26109
RightToes  2.32829e-010 0 -3.6325e-017
Spine  -2.8136 0.150195 1.65237
Spine1  10.2682 0.788977 -2.58514
HEad  -1.91147 -15.9162 -6.84925
LeftShoulder1  -0.276116 4.28787 -29.3373
LeftArm  1.02316 7.00209 -42.6486
LeftForeArm  23.5499 -29.145 -5.02522
LeftHand  -0.0684549 1.8131 1.93523
RightShoulder  -0.659171 -5.43606 27.2907
RightArm  17.1578 0.649362 47.7622
RightForeArm  10.178 16.7358 5.23108
RightHand  -0.0973365 0.2744 -2.0344
LeftUpLeg  5.11941 6.64235 1.81221
LeftLeg  1.94915 1.42353 0.292287
LeftFoot  -3.50977 -0.0174676 0.567273
LeftToes  -3.54706e-010 1.16038e-010 5.28031e-012
55
root  22.8913 39.9371 20.9185 -138.817 -88.33 136.006
RightUpLeg  3.63621 -8.5988 -6.31681
RightLeg  3.9263 4.78199 -0.36729
RightFoot  -4.55241 -0.228722 3.33653
RightToes  2.32829e-010 0 -3.6325e-017
Spine  -3.083 0.169542 0.81838
Spine1  10.9246 0.570383 -1.80676
HEad  -1.79739 -15.089 -7.05255
LeftShoulder1  -0.264444 4.24131 -29.6635
LeftArm  1.87286 5.62568 -42.7641
LeftForeArm  23.4446 -28.9949 -4.99698
LeftHand  -0.0975891 0.870523 2.44657
RightShoulder  -0.62025 -5.34989 26.8919
RightArm  17.6972 1.19489 48.1688
RightForeArm  9.3772 17.9312 4.96273
RightHand  -0.0971612 1.02316 -1.86435
LeftUpLeg  4.89959 6.9384 1.80232
LeftLeg  2.57591 1.46293 -0.00360843
LeftFoot  -4.01701 -0.0195436 0.68021
LeftToes  -3.54706e-010 1.16038e-010 5.28031e-012
56
root  22.9347 39.8306 20.9695 -137.727 -87.8736 135.091
RightUpLeg  1.76978 -8.55528 -6.82995
RightLeg  7.1388 5.16839 0.0961256
RightFoot  -6.05804 -0.206295 3.57093
RightToes  2.32829e-010 0 -3.6325e-017
Spine  -2.86688 0.0621816 -0.152459
Spine1  10.9717 0.364567 -1.59627
HEad  -1.78254 -14.6668 -6.53328
LeftShoulder1  -0.203073 4.0767 -29.3022
LeftArm  3.7341 4.50437 -43.2373
LeftForeArm  21.8678 -28.0623 -4.87211
LeftHand  -0.111372 1.5032 3.13332
RightShoulder  -0.632719 -5.37026 27.1888
RightArm  18.1264 1.44911 48.1553
RightForeArm  9.39682 19.4535 4.6295
RightHand  -0.0863345 1.31641 -1.6311
LeftUpLeg  3.96862 7.18056 1.57374
LeftLeg  4.13478 1.596 -0.325681
LeftFoot  -5.05748 0.0031313 0.503968
LeftToes  -3.54706e-010 1.16038e-010 5.28031e-012
57
root  23.0174 39.6634 20.981 -142.115 -87.2817 139.23
RightUpLeg  -0.522985 -7.81186 -7.25795
RightLeg  11.8156 5.0138 0.755279
RightFoot  -7.49379 -0.180155 3.85941
RightToes  2.32829e-010 0 -3.6325e-017
Spine  -1.40987 -0.0113999 -1.45617
Spine1  10.3537 0.0927856 -1.29094
HEad  -1.57108 -13.3899 -6.02771
LeftShoulder1  -0.216125 4.10864 -29.5863
LeftArm  6.41826 2.78154 -43.3099
LeftForeArm  19.7792 -25.8876 -4.46015
LeftHand  -0.102419 1.31087 2.74169
RightShoulder  -0.631087 -5.36682 27.1629
RightArm  18.0778 1.51391 48.4777
RightForeArm  9.34162 20.6382 4.45134
RightHand  -0.0890139 1.78333 -1.57772
LeftUpLeg  2.96986 7.89974 1.69677
LeftLeg  6.7863 1.35226 -0.85465
LeftFoot  -6.69292 0.0232922 0.407304
LeftToes  -3.54706e-010 1.16038e-010 5.28031e-012
58
root  23.1505 39.4872 21.0026 -146.853 -86.4525 143.5
RightUpLeg  -3.66237 -7.02978 -7.85083
RightLeg  18.2431 5.22462 1.76993
RightFoot  -8.27138 -0.190398 5.03847
RightToes  2.32829e-010 0 -3.6325e-017
Spine  0.97352 -0.150563 -2.58488
Spine1  9.32464 -0.20473 -1.21996
HEad  -1.49391 -11.1094 -5.78752
LeftShoulder1  -0.155548 3.93856 -29.6561
LeftArm  8.59991 1.27994 -43.5279
LeftForeArm  17.7046 -23.1056 -4.27964
LeftHand  -0.0847448 1.99704 2.58037
RightShoulder  -0.620872 -5.33274 27.2234
RightArm  17.9485 1.79773 48.9899
RightForeArm  8.87713 21.3211 4.42817
RightHand  -0.162428 2.12179 -2.6991
LeftUpLeg  2.18883 8.06391 1.45688
LeftLeg  9.30411 2.00504 -0.754454
LeftFoot  -8.26967 0.0508672 -0.0542032
LeftToes  -3.54706e-010 1.16038e-010 5.28031e-012
59
root  23.2757 39.3116 21.0324 -156.198 -84.9244 152.145
RightUpLeg  -7.44182 -7.42699 -8.66029
RightLeg  25.8337 7.25824 3.60742
RightFoot  -7.74559 -0.306273 7.91118
RightToes  2.32829e-010 0 -3.6325e-017
Spine  3.18118 -0.0445452 -3.13274
Spine1  9.07512 -0.118383 -1.77085
HEad  -2.23906 -9.14527 -5.32867
LeftShoulder1  -0.116151 3.82453 -29.8258
LeftArm  8.86451 -0.981728 -43.6658
LeftForeArm  18.5319 -18.9524 -5.48598
LeftHand  -0.0998283 1.93813 3.06208
RightShoulder  -0.596949 -5.26583 27.1257
RightArm  16.9375 2.18806 49.8349
RightForeArm  10.151 21.7444 4.34069
RightHand  -0.126093 2.0607 -2.14317
LeftUpLeg  1.86951 8.49647 1.36552
LeftLeg  11.6523 3.1155 -0.691655
LeftFoot  -9.88926 0.0650798 -0.39626
LeftToes  -3.54706e-010 1.16038e-010 5.28031e-012
60
root  23.3506 39.1579 21.0257 -159.733 -83.7226 155.211
RightUpLeg  -11.3338 -8.57428 -9.40008
RightLeg  32.9166 8.66102 5.75895
RightFoot  -5.6804 -0.610373 11.4614
RightToes  2.32829e-010 0 -3.6325e-017
Spine  5.08588 -0.187854 -3.42761
Spine1  8.70772 -0.152983 -2.85453
HEad  -2.82747 -7.80801 -4.87814
LeftShoulder1  0.0484249 3.36764 -29.1705
LeftArm  5.79672 -2.66507 -43.8883
LeftForeArm  23.4125 -14.5034 -7.82399
LeftHand  -0.0613897 2.61645 2.04878
RightShoulder  -0.652582 -5.38863 27.9244
RightArm  16.8252 2.36957 49.9186
RightForeArm  9.8838 21.9895 4.35816
RightHand  -0.146431 2.10175 -2.45325
LeftUpLeg  1.47293 8.87871 1.31272
LeftLeg  13.7026 3.77534 -0.527077
LeftFoot  -11.1115 0.0672419 -0.564463
LeftToes  -3.54706e-010 1.16038e-010 5.28031e-012
61
root  23.3055 39.0387 20.9779 -162.465 -82.1657 157.453
RightUpLeg  -14.6045 -8.84306 -10.1038
RightLeg  37.9878 9.19913 7.37507
RightFoot  -3.58119 -0.963612 13.8483
RightToes  2.32829e-010 0 -3.6325e-017
Spine  6.60221 -0.0865721 -4.54921
Spine1  8.59976 -0.307539 -2.41328
HEad  -3.33979 -5.8071 -5.43007
LeftShoulder1  0.0414067 3.3886 -29.8378
LeftArm  1.04578 -4.51 -43.7585
LeftForeArm  30.055 -9.3227 -9.70647
LeftHand  -0.0353615 4.31456 1.50056
RightShoulder  -0.621024 -5.32063 27.4621
RightArm  16.6735 1.93271 50.4208
RightForeArm  9.78961 21.891 4.36334
RightHand  -0.161512 2.09333 -2.67282
LeftUpLeg  1.73349 9.13694 1.16662
LeftLeg  14.9195 4.87489 -0.251225
LeftFoot  -12.1124 0.0653934 -1.12894
LeftToes  -3.54706e-010 1.16038e-010 5.28031e-012
62
root  23.1598 38.9872 20.8941 -165.475 -81.1805 160.483
RightUpLeg  -16.9774 -9.35501 -10.251
RightLeg  38.9993 9.43043 7.84504
RightFoot  -3.00666 -1.04736 14.0303
RightToes  2.32829e-010 0 -3.6325e-017
Spine  7.02161 -0.230965 -4.87866
Spine1  8.88394 -0.50848 -2.27116
HEad  -2.65034 -4.40025 -6.19739
LeftShoulder1  0.0528177 3.35793 -30.0109
LeftArm  -1.41323 -5.52996 -44.121
LeftForeArm  35.8293 -5.4823 -10.2085
LeftHand  -0.0285579 4.441 0.35456
RightShoulder  -0.625666 -5.32958 27.5434
RightArm  16.4911 1.35843 50.5091
RightForeArm  9.21164 20.8118 4.40674
RightHand  -0.218375 2.49057 -3.42604
LeftUpLeg  1.91213 9.38462 1.41483
LeftLeg  15.4026 5.57551 -0.0246725
LeftFoot  -12.7374 0.0596015 -1.38556
LeftToes  -3.54706e-010 1.16038e-010 5.28031e-012
63
root  22.9585 39.0444 20.825 -169.244 -80.6033 164.686
RightUpLeg  -18.2561 -10.048 -9.96915
RightLeg  35.7299 8.8982 6.60354
RightFoot  -3.34076 -0.978115 13.6004
RightToes  2.32829e-010 0 -3.6325e-017
Spine  7.32384 -0.576592 -4.17021
Spine1  8.7432 -0.709684 -2.35891
HEad  -2.34534 -2.84541 -5.98088
LeftShoulder1  0.0725462 3.30083 -30.2464
LeftArm  -2.42969 -5.4618 -44.5817
LeftForeArm  40.0245 -3.73799 -9.94477
LeftHand  -0.0265502 5.17867 -1.34676
RightShoulder  -0.667801 -5.43073 27.967
RightArm  16.3835 0.405366 49.963
RightForeArm  9.72245 19.5424 4.52116
RightHand  -0.198389 2.00746 -3.29247
LeftUpLeg  2.18911 9.37396 1.8997
LeftLeg  14.8438 6.14171 0.194748
LeftFoot  -12.8307 0.0539561 -1.77261
LeftToes  -3.54706e-010 1.16038e-010 5.28031e-012
64
root  22.6767 39.0998 20.6851 -172.579 -79.9992 168.529
RightUpLeg  -18.617 -10.3061 -9.56792
RightLeg  29.5862 7.37801 4.29672
RightFoot  -3.55987 -0.883437 12.5821
RightToes  2.32829e-010 0 -3.6325e-017
Spine  7.79848 -0.881536 -3.96576
Spine1  8.26329 -1.10443 -1.63995
HEad  -2.02317 -1.72431 -6.60483
LeftShoulder1  -0.106857 3.79064 -31.2954
LeftArm  -2.11356 -4.91813 -44.2076
LeftForeArm  41.7454 -3.55864 -10.0858
LeftHand  -0.0251853 5.1852 -2.2157
RightShoulder  -0.662212 -5.41939 27.8716
RightArm  15.5811 -0.649431 49.4732
RightForeArm  10.7428 17.3343 4.89607
RightHand  -0.200465 2.50466 -3.1499
LeftUpLeg  2.58488 9.43769 2.52266
LeftLeg  14.217 6.64245 0.360379
LeftFoot  -12.8909 0.0503824 -1.98848
LeftToes  -3.54706e-010 1.16038e-010 5.28031e-012
65
root  22.3422 39.1459 20.5235 -174.416 -79.2524 170.966
RightUpLeg  -18.4302 -10.0811 -9.44699
RightLeg  22.0852 5.76402 2.37846
RightFoot  -4.0028 -0.791159 11.8761
RightToes  2.32829e-010 0 -3.6325e-017
Spine  7.65915 -1.0788 -3.19898
Spine1  8.58044 -1.11324 -1.78063
HEad  -2.51307 -0.486171 -6.49312
LeftShoulder1  -0.0615634 3.67004 -30.9514
LeftArm  -2.12882 -3.55321 -44.7722
LeftForeArm  41.6136 -4.16286 -10.0113
LeftHand  -0.00833197 4.6126 -2.91192
RightShoulder  -0.716452 -5.55112 28.3316
RightArm  13.8343 -1.2092 48.7062
RightForeArm  12.1189 14.0536 5.55794
RightHand  -0.172096 2.17011 -2.84036
LeftUpLeg  3.09286 9.46135 2.98078
LeftLeg  13.3366 7.26448 0.431175
LeftFoot  -12.967 0.0436211 -2.40724
LeftToes  -3.54706e-010 1.16038e-010 5.28031e-012
66
root  21.9623 39.1761 20.279 -175.529 -78.4891 172.815
RightUpLeg  -18.0134 -9.03349 -9.31591
RightLeg  14.2521 4.19808 0.964086
RightFoot  -4.00933 -0.719295 10.7685
RightToes  2.32829e-010 0 -3.6325e-017
Spine  7.81019 -1.08823 -2.67788
Spine1  8.32452 -1.08066 -1.43692
HEad  -2.60166 0.554173 -6.75809
LeftShoulder1  -0.0975342 3.76501 -31.1638
LeftArm  -1.03366 -2.11768 -44.7593
LeftForeArm  39.5489 -5.57787 -10.2602
LeftHand  -0.0374522 5.57384 -2.53981
RightShoulder  -0.728226 -5.57334 28.5271
RightArm  11.4401 -2.43283 47.9747
RightForeArm  14.3929 11.0623 5.80935
RightHand  -0.145621 1.1302 -2.69555
LeftUpLeg  3.53374 9.60688 3.53468
LeftLeg  12.5211 7.72716 0.368271
LeftFoot  -13.0392 0.0381404 -2.70111
LeftToes  -3.54706e-010 1.16038e-010 5.28031e-012
67
root  21.4873 39.1307 19.9711 -173.938 -77.9171 171.872
RightUpLeg  -17.6375 -9.14156 -9.46095
RightLeg  7.68928 4.03259 0.0986785
RightFoot  -4.24832 -0.674978 10.394
RightToes  2.32829e-010 0 -3.6325e-017
Spine  7.60054 -1.07495 -2.68441
Spine1  8.49104 -1.10624 -1.0281
HEad  -2.49318 0.369537 -7.35945
LeftShoulder1  -0.160154 3.9263 -31.8026
LeftArm  1.22439 -1.06598 -44.2399
LeftForeArm  36.6998 -7.23398 -10.5399
LeftHand  -0.0305078 5.32948 -2.14506
RightShoulder  -0.666849 -5.4148 28.2029
RightArm  9.62708 -3.93698 47.6193
RightForeArm  16.2433 8.3303 5.66624
RightHand  -0.0968293 0.830121 -1.90547
LeftUpLeg  4.04355 9.58991 3.6015
LeftLeg  11.9329 8.12882 0.29811
LeftFoot  -13.2542 0.0309112 -2.91145
LeftToes  -3.54706e-010 1.16038e-010 5.28031e-012
